<svg xmlns="http://www.w3.org/2000/svg" width="212" height="212" viewBox="0 0 212 212">
  <g fill="none" fill-rule="evenodd" transform="translate(26 30)">
    <path fill="#FF6F57" d="M110.291,0 L49.667,0 C47.457,0 45.665,1.792 45.665,4 L45.665,147.844 C45.665,150.052 47.457,151.844 49.667,151.844 L110.291,151.844 C112.499,151.844 114.291,150.052 114.291,147.844 L114.291,4 C114.291,1.792 112.499,0 110.291,0"/>
    <path stroke="#1E2126" stroke-linecap="round" stroke-linejoin="round" stroke-width="4" d="M114.291 114.166L114.291 4C114.291 1.79 112.499 0 110.291 0L49.665 0C47.457 0 45.665 1.79 45.665 4L45.665 147.844C45.665 150.052 47.457 151.844 49.665 151.844L110.291 151.844C112.499 151.844 114.291 150.052 114.291 147.844L114.291 125.524M7.9384 45.5548L16.9224 50.7428M143.077 99.6172L152.063 104.8052M0 75.1798L10.374 75.1798M149.625 75.1798L159.999 75.1798M7.9384 104.8048L16.9224 99.6168M143.077 50.7422L152.063 45.5542"/>
    <path fill="#C9D2F0" d="M99.9784,117.9414 C99.9784,106.9474 91.0664,98.0354 80.0724,98.0354 C69.0804,98.0354 60.1684,106.9474 60.1684,117.9414 C60.1684,128.9334 69.0804,137.8454 80.0724,137.8454 C91.0664,137.8454 99.9784,128.9334 99.9784,117.9414"/>
    <path stroke="#1E2126" stroke-linecap="round" stroke-linejoin="round" stroke-width="4" d="M99.789,117.9414 C99.789,106.9474 90.877,98.0354 79.883,98.0354 C68.891,98.0354 59.979,106.9474 59.979,117.9414 C59.979,128.9334 68.891,137.8454 79.883,137.8454 C90.877,137.8454 99.789,128.9334 99.789,117.9414 Z"/>
    <path fill="#C9D2F0" d="M66.9716 33.666L60.9716 33.666C59.3156 33.666 57.9716 32.322 57.9716 30.666 57.9716 29.008 59.3156 27.666 60.9716 27.666L66.9716 27.666C68.6296 27.666 69.9716 29.008 69.9716 30.666 69.9716 32.322 68.6296 33.666 66.9716 33.666M82.9784 33.666L76.9784 33.666C75.3204 33.666 73.9784 32.322 73.9784 30.666 73.9784 29.008 75.3204 27.666 76.9784 27.666L82.9784 27.666C84.6364 27.666 85.9784 29.008 85.9784 30.666 85.9784 32.322 84.6364 33.666 82.9784 33.666M98.9844 33.666L92.9844 33.666C91.3284 33.666 89.9844 32.322 89.9844 30.666 89.9844 29.008 91.3284 27.666 92.9844 27.666L98.9844 27.666C100.6424 27.666 101.9844 29.008 101.9844 30.666 101.9844 32.322 100.6424 33.666 98.9844 33.666M66.9716 45.666L60.9716 45.666C59.3156 45.666 57.9716 44.322 57.9716 42.666 57.9716 41.008 59.3156 39.666 60.9716 39.666L66.9716 39.666C68.6296 39.666 69.9716 41.008 69.9716 42.666 69.9716 44.322 68.6296 45.666 66.9716 45.666M82.9784 45.666L76.9784 45.666C75.3204 45.666 73.9784 44.322 73.9784 42.666 73.9784 41.008 75.3204 39.666 76.9784 39.666L82.9784 39.666C84.6364 39.666 85.9784 41.008 85.9784 42.666 85.9784 44.322 84.6364 45.666 82.9784 45.666M98.9844 45.666L92.9844 45.666C91.3284 45.666 89.9844 44.322 89.9844 42.666 89.9844 41.008 91.3284 39.666 92.9844 39.666L98.9844 39.666C100.6424 39.666 101.9844 41.008 101.9844 42.666 101.9844 44.322 100.6424 45.666 98.9844 45.666M66.9716 57.666L60.9716 57.666C59.3156 57.666 57.9716 56.322 57.9716 54.666 57.9716 53.008 59.3156 51.666 60.9716 51.666L66.9716 51.666C68.6296 51.666 69.9716 53.008 69.9716 54.666 69.9716 56.322 68.6296 57.666 66.9716 57.666M82.9784 57.666L76.9784 57.666C75.3204 57.666 73.9784 56.322 73.9784 54.666 73.9784 53.008 75.3204 51.666 76.9784 51.666L82.9784 51.666C84.6364 51.666 85.9784 53.008 85.9784 54.666 85.9784 56.322 84.6364 57.666 82.9784 57.666M98.9844 57.666L92.9844 57.666C91.3284 57.666 89.9844 56.322 89.9844 54.666 89.9844 53.008 91.3284 51.666 92.9844 51.666L98.9844 51.666C100.6424 51.666 101.9844 53.008 101.9844 54.666 101.9844 56.322 100.6424 57.666 98.9844 57.666"/>
    <path fill="#F3F8FF" d="M98.9844 75.666L84.9844 75.666C83.3284 75.666 81.9844 74.322 81.9844 72.666 81.9844 71.008 83.3284 69.666 84.9844 69.666L98.9844 69.666C100.6424 69.666 101.9844 71.008 101.9844 72.666 101.9844 74.322 100.6424 75.666 98.9844 75.666M74.9716 87.666L60.9716 87.666C59.3156 87.666 57.9716 86.322 57.9716 84.666 57.9716 83.008 59.3156 81.666 60.9716 81.666L74.9716 81.666C76.6296 81.666 77.9716 83.008 77.9716 84.666 77.9716 86.322 76.6296 87.666 74.9716 87.666M98.9844 87.666L84.9844 87.666C83.3284 87.666 81.9844 86.322 81.9844 84.666 81.9844 83.008 83.3284 81.666 84.9844 81.666L98.9844 81.666C100.6424 81.666 101.9844 83.008 101.9844 84.666 101.9844 86.322 100.6424 87.666 98.9844 87.666M74.9716 75.666L60.9716 75.666C59.3156 75.666 57.9716 74.322 57.9716 72.666 57.9716 71.008 59.3156 69.666 60.9716 69.666L74.9716 69.666C76.6296 69.666 77.9716 71.008 77.9716 72.666 77.9716 74.322 76.6296 75.666 74.9716 75.666"/>
    <path fill="#7289DA" d="M101.9844,15.998 C101.9844,13.79 100.1944,11.998 97.9844,11.998 C95.7764,11.998 93.9844,13.79 93.9844,15.998 C93.9844,18.206 95.7764,19.998 97.9844,19.998 C100.1944,19.998 101.9844,18.206 101.9844,15.998"/>
    <path fill="#FFD671" d="M89.9844,15.998 C89.9844,13.79 88.1944,11.998 85.9844,11.998 C83.7764,11.998 81.9844,13.79 81.9844,15.998 C81.9844,18.206 83.7764,19.998 85.9844,19.998 C88.1944,19.998 89.9844,18.206 89.9844,15.998"/>
  </g>
</svg>
